# xmcd
#
# Track frame offsets:
#	150
#	19021
#	33972
#	49679
#	69126
#	87453
#	105674
#	125319
#	140397
#	157145
#	173507
#	188413
#	207745
#
# Disc length: 2979 seconds
#
# Revision: 2
# Processed by: cddbd v1.5.2PL0 Copyright (c) Steve Scherf et al.
# Submitted via: audiograbber 1.83.01
#
DISCID=a60ba10d
DTITLE=Brantley Gilbert - Modern Day Prodigal Son
DYEAR=2009
DGENRE=Country
TTITLE0=Freshman Year
TTITLE1=What's Left of a Small Town
TTITLE2=G.R.I.T.S.
TTITLE3=Whenever We're Alone
TTITLE4=Best of Me
TTITLE5=My Kinda Party
TTITLE6=Modern Day Prodigal Son
TTITLE7=Live It Up
TTITLE8=Friday Night
TTITLE9=Indiana's Angel
TTITLE10=Rock This Town
TTITLE11=Picture on the Dashboard
TTITLE12=Play Me That Song
EXTD=
EXTT0=
EXTT1=
EXTT2=
EXTT3=
EXTT4=
EXTT5=
EXTT6=
EXTT7=
EXTT8=
EXTT9=
EXTT10=
EXTT11=
EXTT12=
PLAYORDER=
